<svg xmlns="http://www.w3.org/2000/svg" width="33.116" height="30.225" viewBox="0 0 33.116 30.225">
  <defs>
    <style>
      .cls-1 {
        fill: #108ee9;
      }
    </style>
  </defs>
  <g id="钻石" transform="translate(0 -4.066)">
    <path id="路径_4" data-name="路径 4" class="cls-1" d="M5.267,59.681c.235-.391.517-.888,1.041-.871,6.507-.02,13.018,0,19.527-.008a1.142,1.142,0,0,1,1.027.545c1.873,2.651,3.732,5.313,5.6,7.964a5.263,5.263,0,0,1,.649,1.065v.263a5.335,5.335,0,0,1-.952,1.369Q24.519,79.347,16.884,88.7a.867.867,0,0,1-1.346.01c-1.667-2.033-3.194-4.181-4.9-6.184-.715-.937-1.391-1.9-2.151-2.807q-2.555-3.317-5.158-6.6c-.757-1.007-1.547-1.987-2.315-2.984A7.054,7.054,0,0,1,0,68.682v-.318a10.621,10.621,0,0,1,.853-1.505c1.47-2.393,2.949-4.782,4.414-7.178m2.545,1.108c.758,1.916,1.492,3.84,2.235,5.76q2.039-2.876,4.067-5.76-3.149,0-6.3,0m10.475,0c1.368,1.977,2.676,4,4.1,5.934.717-1.982,1.452-3.957,2.172-5.938-2.091,0-4.184,0-6.275,0m-6.535,6.744c2.922-.007,5.845,0,8.767-.007q-2.166-3.147-4.318-6.3-2.218,3.157-4.449,6.307m-9,0c1.856.007,3.711,0,5.567,0C7.627,65.683,6.906,63.844,6.191,62c-1.2,1.806-2.29,3.689-3.441,5.53m23.5-5.651c-.677,1.889-1.384,3.767-2.063,5.656,2.012,0,4.024,0,6.035,0-1.315-1.891-2.644-3.774-3.972-5.655m-23.267,7.6Q8.614,76.7,14.255,83.909C12.6,79.074,10.807,74.287,9.06,69.485q-3.04-.007-6.082,0m8.17,0c1.624,4.439,3.254,8.877,4.818,13.337a2.135,2.135,0,0,0,.293.609c1.717-4.644,3.409-9.3,5.118-13.947H11.148m12.326,0c-1.8,4.868-3.57,9.749-5.371,14.617,4.007-4.851,7.966-9.743,11.956-14.606-2.194-.02-4.389,0-6.585-.012Z" transform="translate(0 -54.733)"/>
  </g>
</svg>
