<svg xmlns="http://www.w3.org/2000/svg" width="31.544" height="30.061" viewBox="0 0 31.544 30.061">
  <defs>
    <style>
      .cls-1 {
        fill: #ff4d4f;
      }
    </style>
  </defs>
  <g id="new" transform="translate(-174 -358.485)">
    <path id="路径_5" data-name="路径 5" class="cls-1" d="M116.766,17.067H92.2c-1.925,0-3.486,1.272-3.486,2.841V44.284c0,1.623,1.634,2.844,3.482,2.844a4.255,4.255,0,0,0,1.18-.168l9.976-2.912a4.24,4.24,0,0,1,2.358,0l9.881,2.9a4.172,4.172,0,0,0,1.186.171c1.925,0,3.482-1.277,3.482-2.845V19.908c0-1.57-1.565-2.841-3.491-2.841Zm1.31,27.207a1.21,1.21,0,0,1-1.3,1.068,1.6,1.6,0,0,1-.449-.068l-9.881-2.9a6.861,6.861,0,0,0-3.828,0l-9.976,2.913a1.561,1.561,0,0,1-1.191-.134,1.024,1.024,0,0,1-.554-.869V25.594H118.08V44.272h-.005Zm0-20.45H90.888V19.907A1.208,1.208,0,0,1,92.2,18.84h24.568a1.208,1.208,0,0,1,1.31,1.068v3.914Z" transform="translate(85.287 341.419)"/>
    <path id="路径_6" data-name="路径 6" class="cls-1" d="M190.889,448.643a.847.847,0,0,1-1.687,0v-7.032a.893.893,0,0,1,.633-.772.9.9,0,0,1,.984.351l3.586,4.921v-4.5a.847.847,0,0,1,1.687,0v7.1a.893.893,0,0,1-.633.773.9.9,0,0,1-.984-.351l-3.586-4.921Zm16.243.773a.716.716,0,0,1-.774-.632l-1.265-7.1a.85.85,0,0,1,.773-.914.949.949,0,0,1,1.055.633l.7,4.008.7-1.759a.969.969,0,0,1,1.687,0l.7,1.759.7-4.008a.908.908,0,0,1,1.055-.633.85.85,0,0,1,.773.916l-1.265,7.1a.824.824,0,0,1-.773.632,1.012,1.012,0,0,1-.916-.492l-1.054-2.6-1.054,2.6a1.047,1.047,0,0,1-1.055.492Zm-4.219-7.031h-3.936v1.969h3.937a.774.774,0,0,1,0,1.548h-3.937v1.969h3.937a.773.773,0,1,1,0,1.546H198.2a.781.781,0,0,1-.774-.773v-7.032a.781.781,0,0,1,.774-.772h4.71a.773.773,0,1,1,0,1.546Z" transform="translate(-11.457 -68.694)"/>
  </g>
</svg>
