<svg xmlns="http://www.w3.org/2000/svg" width="32" height="32" viewBox="0 0 32 32">
  <defs>
    <style>
      .cls-1 {
        fill: #faad14;
      }
    </style>
  </defs>
  <g id="团队_1_" data-name="团队 (1)" transform="translate(-0.512 -0.512)">
    <path id="路径_18" data-name="路径 18" class="cls-1" d="M9.4,91.261H3.813a.758.758,0,0,1-.758-.706L2.575,83.9.932,83.076a.753.753,0,0,1-.42-.677V78.348a3.806,3.806,0,0,1,3.81-3.8H8.385a3.832,3.832,0,0,1,3.443,2.175.762.762,0,0,1-1.377.652A2.3,2.3,0,0,0,8.385,76.07H4.322a2.286,2.286,0,0,0-2.287,2.279v3.583l1.61.8a.761.761,0,0,1,.42.626l.456,6.381H9.4a.76.76,0,1,1,0,1.52ZM6.353,73.031a3.8,3.8,0,1,1,3.81-3.8,3.806,3.806,0,0,1-3.81,3.8Zm0-6.077a2.279,2.279,0,1,0,2.285,2.279,2.284,2.284,0,0,0-2.285-2.279ZM29.211,91.261H23.622a.76.76,0,1,1,0-1.52H28.5l.456-6.384a.758.758,0,0,1,.42-.626l1.61-.8v-3.58A2.285,2.285,0,0,0,28.7,76.07H24.637a2.3,2.3,0,0,0-2.066,1.306.762.762,0,0,1-1.377-.652,3.833,3.833,0,0,1,3.443-2.175H28.7a3.806,3.806,0,0,1,3.812,3.8V82.4a.759.759,0,0,1-.424.68l-1.64.816-.477,6.658a.765.765,0,0,1-.761.707ZM26.67,73.031a3.8,3.8,0,1,1,3.81-3.8,3.806,3.806,0,0,1-3.81,3.8Zm0-6.077a2.279,2.279,0,1,0,2.285,2.279A2.284,2.284,0,0,0,26.67,66.954Z" transform="translate(0 -62.865)"/>
    <path id="路径_19" data-name="路径 19" class="cls-1" d="M302.844,32.512H296.67a.77.77,0,0,1-.772-.714l-.475-7.544-1.99-.392a.763.763,0,0,1-.62-.746v-6.6a4.863,4.863,0,0,1,4.885-4.826h4.117a4.863,4.863,0,0,1,4.886,4.826v6.6a.764.764,0,0,1-.62.746l-1.991.392-.475,7.544a.77.77,0,0,1-.772.714Zm-5.451-1.523h4.724l.47-7.414a.764.764,0,0,1,.616-.7l1.952-.384v-5.98a3.329,3.329,0,0,0-3.343-3.3H297.7a3.329,3.329,0,0,0-3.342,3.3v5.977l1.952.384a.759.759,0,0,1,.616.7l.47,7.415Zm2.364-20.826a4.863,4.863,0,0,1-4.888-4.826,4.888,4.888,0,0,1,9.776,0,4.863,4.863,0,0,1-4.888,4.826Zm0-8.13a3.3,3.3,0,1,0,0,6.6,3.329,3.329,0,0,0,3.343-3.3,3.329,3.329,0,0,0-3.343-3.3Z" transform="translate(-283.246)"/>
  </g>
</svg>
